<mxfile host="app.diagrams.net" modified="2023-12-05T19:11:35.108Z" agent="Mozilla/5.0 (Windows NT 10.0; Win64; x64) AppleWebKit/537.36 (KHTML, like Gecko) Chrome/119.0.0.0 Safari/537.36 Edg/119.0.0.0" version="22.1.5" etag="RWtRe5yb7-uFQ_-fKf81" type="github">
  <diagram name="Страница — 1" id="r05YAz-nvDLeITavobjT">
    <mxGraphModel>
      <root>
        <mxCell id="0" />
        <mxCell id="1" parent="0" />
      </root>
    </mxGraphModel>
  </diagram>
</mxfile>
